<svg width="134" height="134" viewBox="0 0 134 134" fill="none" xmlns="http://www.w3.org/2000/svg">
<path d="M66.4846 68.8038C63.3923 69.0615 60.5577 67.773 57.4654 66.7423C41.2308 61.3307 24.7385 55.9192 8.50384 50.5076C7.47307 49.9923 6.69999 49.7346 5.92692 48.9615C4.89615 48.1884 4.89615 47.1576 5.92692 46.3846C6.69999 45.8692 7.73076 45.0961 8.76153 44.8384C26.2846 39.6846 43.55 34.5307 61.0731 29.1192C64.9385 27.8307 69.0615 27.8307 73.1846 29.1192C90.45 34.273 107.715 39.4269 124.981 44.5807C126.012 45.0961 127.042 45.3538 128.073 46.1269C129.362 46.8999 129.362 48.1884 128.073 48.9615C127.3 49.4769 126.527 49.9923 125.496 50.2499C108.231 55.9192 90.9654 61.8461 73.4423 67.5153C71.1231 68.5461 69.0615 68.8038 66.4846 68.8038Z" fill="white"/>
<path d="M32.2115 69.5768C29.6346 69.0614 29.1192 70.6076 29.1192 71.896C29.1192 78.596 29.1192 85.0384 29.1192 91.4807C29.1192 93.7999 29.8923 95.0884 31.4385 96.6345C31.9538 97.1499 32.7269 97.6653 33.2423 98.1807C37.3654 101.015 42.2615 102.819 47.1577 104.108C56.95 106.685 66.7423 107.2 76.7923 105.911C83.2346 105.138 89.6769 103.335 95.6038 100.758C98.1808 99.4691 100.758 98.1807 102.562 96.1191C103.85 94.8307 104.365 93.5422 104.108 91.7383C104.365 85.5537 104.365 79.1114 104.365 72.6691C104.365 69.0614 101.788 69.5768 100.758 69.8345C91.7385 72.9268 82.2038 75.7614 73.1846 78.8537C68.5462 80.3999 64.1654 80.3999 59.7846 78.8537L32.2115 69.5768Z" fill="white"/>
<path d="M118.281 63.65C117.508 63.9077 117.25 64.1654 117.25 65.1961C117.25 71.1231 117.25 76.7923 117.25 82.7192C117.25 83.2346 116.992 84.0077 116.735 84.5231C115.446 87.6154 114.158 90.7077 113.127 93.8C112.096 96.6346 112.612 99.7269 114.673 101.788C115.188 102.562 116.219 103.335 116.992 103.85C117.765 104.623 119.054 104.881 120.085 105.138C121.888 105.396 123.435 104.365 124.723 103.335C125.238 102.819 126.012 102.304 126.527 101.531C128.073 99.4692 128.331 96.8923 127.815 94.5731C127.042 90.9654 125.496 87.8731 123.95 84.7808C123.435 84.2654 123.435 83.2346 123.435 82.7192C123.435 76.2769 123.435 70.0923 123.435 63.65C123.435 62.3615 122.404 62.6192 121.888 62.8769L118.281 63.65Z" fill="white"/>
</svg>
