<svg width="142" height="142" viewBox="0 0 142 142" fill="none" xmlns="http://www.w3.org/2000/svg">
<path d="M43.4283 49.2384C43.8898 49.6999 44.4957 49.9318 45.1015 49.9318C45.7074 49.9318 46.3133 49.6999 46.7748 49.2384C47.7001 48.313 47.7001 46.8173 46.7748 45.8919C44.3726 43.4874 44.3726 39.5777 46.7748 37.1731C48.8338 35.1141 49.9698 32.3783 49.9698 29.4673C49.9698 26.5563 48.8361 23.8204 46.7748 21.7614C45.8494 20.836 44.3537 20.836 43.4283 21.7614C42.5029 22.6868 42.5029 24.1825 43.4283 25.1079C44.5927 26.2723 45.2364 27.8201 45.2364 29.4673C45.2364 31.1145 44.5951 32.6623 43.4283 33.8267C39.1801 38.0748 39.1801 44.9902 43.4283 49.2384Z" fill="white"/>
<path d="M95.495 49.2384C95.9565 49.6999 96.5623 49.9318 97.1682 49.9318C97.7741 49.9318 98.3799 49.6999 98.8414 49.2384C99.7668 48.313 99.7668 46.8173 98.8414 45.8919C96.4393 43.4874 96.4393 39.5777 98.8414 37.1731C100.9 35.1141 102.036 32.3783 102.036 29.4673C102.036 26.5563 100.903 23.8204 98.8414 21.7614C97.9161 20.836 96.4203 20.836 95.495 21.7614C94.5696 22.6868 94.5696 24.1825 95.495 25.1079C96.6594 26.2723 97.3031 27.8201 97.3031 29.4673C97.3031 31.1145 96.6617 32.6623 95.495 33.8267C91.2468 38.0748 91.2468 44.9902 95.495 49.2384Z" fill="white"/>
<path d="M69.4616 35.0385C69.9231 35.5 70.529 35.7319 71.1349 35.7319C71.7407 35.7319 72.3466 35.5 72.8081 35.0385C73.7335 34.1131 73.7335 32.6174 72.8081 31.692C70.4059 29.2875 70.4059 25.3777 72.8081 22.9732C74.8671 20.9142 76.0031 18.1783 76.0031 15.2673C76.0031 12.3563 74.8695 9.62046 72.8081 7.56146C71.8827 6.63609 70.387 6.63609 69.4616 7.56146C68.5363 8.48682 68.5363 9.98256 69.4616 10.9079C70.626 12.0723 71.2698 13.6201 71.2698 15.2673C71.2698 16.9145 70.6284 18.4623 69.4616 19.6267C65.2135 23.8749 65.2135 30.7903 69.4616 35.0385Z" fill="white"/>
<path d="M59.9831 67.7103C60.1559 67.7103 60.3311 67.6914 60.5062 67.6535C63.9094 66.8867 67.4287 66.4986 70.9692 66.4986C70.9787 66.4986 70.9881 66.4986 71 66.4986C72.3064 66.4986 73.3666 65.4407 73.3666 64.1343C73.3666 62.8255 72.3087 61.7653 71 61.7653C70.9905 61.7653 70.9787 61.7653 70.9668 61.7653C67.0784 61.7653 63.2089 62.1936 59.4649 63.0362C58.1892 63.3225 57.3893 64.5887 57.6757 65.8643C57.9265 66.9648 58.9016 67.7103 59.9831 67.7103Z" fill="white"/>
<path d="M23.2431 106.692C23.3874 106.72 23.5294 106.732 23.6691 106.732C24.7909 106.732 25.7872 105.932 25.9955 104.791C28.4545 91.306 36.5816 79.307 47.7357 72.6992C48.8599 72.0342 49.2314 70.5811 48.5664 69.4569C47.899 68.3327 46.4482 67.9612 45.3241 68.6262C33.0079 75.9226 24.043 89.1239 21.3403 103.939C21.1036 105.227 21.9556 106.457 23.2431 106.692Z" fill="white"/>
<path d="M131.643 103.473C127.355 78.2893 107.724 58.2792 82.7316 53.4322C82.7718 53.0536 82.8333 52.6725 82.8333 52.2962C82.8333 45.7713 77.5249 40.4629 71 40.4629C64.4751 40.4629 59.1667 45.7713 59.1667 52.2962C59.1667 52.6725 59.2258 53.0536 59.2684 53.4322C34.2764 58.2792 14.6449 78.2893 10.3565 103.473C5.4102 106.273 0 110.393 0 115.015C0 127.05 36.7117 135.132 71 135.132C105.288 135.132 142 127.05 142 115.015C142 110.393 136.59 106.273 131.643 103.473ZM63.9142 52.7057C63.9047 52.5684 63.9 52.4311 63.9 52.2986C63.9 48.3841 67.0855 45.1986 71 45.1986C74.9145 45.1986 78.1 48.3841 78.1 52.2986C78.1 52.4335 78.0953 52.5684 78.0858 52.7057C77.9746 52.6938 77.8633 52.6891 77.7545 52.6773C76.9403 52.5873 76.1215 52.5234 75.2979 52.4666C74.9949 52.4453 74.6944 52.4146 74.3914 52.398C73.2696 52.3365 72.1407 52.301 71.0024 52.301C69.864 52.301 68.7351 52.3365 67.6133 52.398C67.3104 52.4146 67.0098 52.4453 66.7069 52.4666C65.8833 52.5234 65.0644 52.5897 64.2503 52.6773C64.1367 52.6891 64.0254 52.6915 63.9142 52.7057ZM62.4776 57.6709C63.7485 57.4816 65.0265 57.3443 66.3093 57.2402C66.572 57.2189 66.8347 57.2 67.0974 57.181C69.696 57.0059 72.3064 57.0059 74.905 57.181C75.1677 57.2 75.4304 57.2189 75.6931 57.2402C76.9758 57.3443 78.2538 57.4816 79.5247 57.6709C104.181 61.3984 123.68 81.0346 127.218 105.752C127.327 106.512 127.414 107.274 127.492 108.036C127.518 108.299 127.554 108.559 127.578 108.822C127.67 109.87 127.738 110.919 127.772 111.967C90.5913 120.584 51.4135 120.584 14.2331 111.967C14.2686 110.919 14.3349 109.87 14.4272 108.822C14.4509 108.559 14.484 108.299 14.5124 108.036C14.5905 107.272 14.6781 106.509 14.7869 105.752C18.3227 81.0346 37.8217 61.3961 62.4776 57.6709ZM71 130.399C30.5395 130.399 4.73333 120.295 4.73333 115.015C4.73333 114.109 5.85513 112.111 9.61813 109.506C9.60867 109.641 9.6134 109.773 9.60393 109.908C9.52347 111.205 9.46667 112.511 9.46667 113.832V115.697L11.2819 116.135C30.8164 120.821 50.9094 123.168 71 123.168C91.0906 123.168 111.184 120.823 130.718 116.135L132.533 115.697V113.832C132.533 112.511 132.477 111.207 132.396 109.908C132.387 109.773 132.391 109.641 132.382 109.506C136.145 112.111 137.267 114.109 137.267 115.015C137.267 120.295 111.461 130.399 71 130.399Z" fill="white"/>
</svg>
