<svg width="112" height="112" viewBox="0 0 112 112" fill="none" xmlns="http://www.w3.org/2000/svg">
<g clip-path="url(#clip0_4_88)">
<path d="M39.2439 94.5079C41.2637 96.2813 43.3487 98.111 45.4935 100.008C45.5081 100.021 45.523 100.034 45.5379 100.047L52.6729 106.21C53.6288 107.036 54.8153 107.449 56.0017 107.449C57.1881 107.449 58.3749 107.036 59.3309 106.21L66.4644 100.047C66.4794 100.034 66.494 100.021 66.5086 100.008C80.6328 87.5173 91.2225 77.9544 98.884 68.6279C107.832 57.7351 112 47.8861 112 37.6328C112 19.0822 97.4694 4.55127 78.9195 4.55127C70.5822 4.55127 62.3443 7.69067 56.0017 13.1327C49.6574 7.69033 41.4195 4.55127 33.0818 4.55127C14.5313 4.55093 0 19.0822 0 37.6324C0 60.056 15.6121 73.7617 39.2439 94.5079ZM35.6319 45.8163H49.2103V32.2373H62.7894V45.8163H76.3681V59.3951H62.7894V72.9734H49.2103V59.3951H35.6319V45.8163Z" fill="white"/>
</g>
<defs>
<clipPath id="clip0_4_88">
<rect width="112" height="112" fill="white"/>
</clipPath>
</defs>
</svg>
