<?xml version="1.0" ?><svg width="24px" height="24px" viewBox="0 0 24 24" style="enable-background:new 0 0 24 24;" version="1.1" xml:space="preserve" xmlns="http://www.w3.org/2000/svg" xmlns:xlink="http://www.w3.org/1999/xlink"><style type="text/css">
	.st0{opacity:0.2;fill:none;stroke:#000000;stroke-width:5.000000e-02;stroke-miterlimit:10;}
	.st1{fill:none;stroke:#000000;stroke-width:2;stroke-linecap:round;stroke-linejoin:round;stroke-miterlimit:10;}
</style><g id="Layer_1"/><g id="Layer_2"><g><path d="M10,22c-0.2,0-0.4-0.1-0.6-0.2c-0.3-0.3-0.5-0.7-0.4-1.1l1-2.9c0.4-1.3-0.2-2.7-1.4-3.3c-3.4-1.7-5.2-5.5-4.2-9.2l0.4-1.7    C5.1,2.6,5.9,2,6.8,2h9c1,0,2,0.5,2.6,1.4c0.5,0.9,0.6,2,0.1,2.9l-0.5,1c-0.5,1-0.4,2.1,0.3,3c0.8,1,1.2,2.3,1,3.6    c-0.2,1.3-0.9,2.5-2,3.2l-6.7,4.7C10.4,21.9,10.2,22,10,22z M6.8,4L6.8,4L6.3,5.7C5.7,8.5,7,11.4,9.5,12.6    c2.1,1.1,3.1,3.5,2.4,5.8l0,0l4.2-3c0.6-0.4,1-1.1,1.1-1.9c0.1-0.8-0.1-1.5-0.6-2.1c-1.2-1.4-1.4-3.4-0.5-5.1l0.5-1    c0.2-0.5,0-0.8,0-1C16.5,4.3,16.3,4,15.8,4H6.8z"/></g><g><circle cx="18.5" cy="18.5" r="0.5"/></g><g><circle cx="20.5" cy="20.5" r="0.5"/></g><g><path d="M4.5,7C4.2,7,4,6.8,4,6.5S4.2,6,4.5,6"/></g><g><circle cx="5.5" cy="20.5" r="0.5"/></g><g><circle cx="16.5" cy="20.5" r="0.5"/></g><g><circle cx="7.5" cy="17.5" r="0.5"/></g><g><circle cx="3.5" cy="17.5" r="0.5"/></g></g></svg>