<svg width="107" height="107" viewBox="0 0 107 107" fill="none" xmlns="http://www.w3.org/2000/svg">
<path d="M44.5834 98.0833C43.6917 98.0833 42.8 97.6375 41.9084 97.1916C40.5709 95.8541 39.6792 94.0708 40.125 92.2875L44.5834 79.3583C46.3667 73.5625 43.6917 67.3208 38.3417 64.6458C23.1834 57.0666 15.1584 40.125 19.6167 23.6291L21.4 16.05C22.7375 11.5916 26.3042 8.91663 30.3167 8.91663H70.4417C74.9 8.91663 79.3584 11.1458 82.0334 15.1583C84.2625 19.1708 84.7084 24.075 82.4792 28.0875L80.25 32.5458C78.0209 37.0041 78.4667 41.9083 81.5875 45.9208C85.1542 50.3791 86.9375 56.175 86.0459 61.9708C85.1542 67.7666 82.0334 73.1166 77.1292 76.2375L47.2584 97.1916C46.3667 97.6375 45.475 98.0833 44.5834 98.0833ZM30.3167 17.8333L28.0875 25.4125C25.4125 37.8958 31.2084 50.825 42.3542 56.175C51.7167 61.0791 56.175 71.7791 53.0542 82.0333L71.7792 68.6583C74.4542 66.875 76.2375 63.7541 76.6834 60.1875C77.1292 56.6208 76.2375 53.5 74.0084 50.825C68.6584 44.5833 67.7667 35.6666 71.7792 28.0875L74.0084 23.6291C74.9 21.4 74.0084 20.0625 74.0084 19.1708C73.5625 19.1708 72.6709 17.8333 70.4417 17.8333H30.3167Z" fill="white"/>
<path d="M82.4792 84.7083C83.7103 84.7083 84.7083 83.7103 84.7083 82.4792C84.7083 81.248 83.7103 80.25 82.4792 80.25C81.248 80.25 80.25 81.248 80.25 82.4792C80.25 83.7103 81.248 84.7083 82.4792 84.7083Z" fill="white"/>
<path d="M91.3958 93.625C92.6269 93.625 93.625 92.6269 93.625 91.3958C93.625 90.1647 92.6269 89.1666 91.3958 89.1666C90.1647 89.1666 89.1666 90.1647 89.1666 91.3958C89.1666 92.6269 90.1647 93.625 91.3958 93.625Z" fill="white"/>
<path d="M20.0625 31.2083C18.725 31.2083 17.8334 30.3167 17.8334 28.9792C17.8334 27.6417 18.725 26.75 20.0625 26.75" fill="white"/>
<path d="M24.5208 93.625C25.7519 93.625 26.75 92.6269 26.75 91.3958C26.75 90.1647 25.7519 89.1666 24.5208 89.1666C23.2897 89.1666 22.2916 90.1647 22.2916 91.3958C22.2916 92.6269 23.2897 93.625 24.5208 93.625Z" fill="white"/>
<path d="M73.5625 93.625C74.7937 93.625 75.7917 92.6269 75.7917 91.3958C75.7917 90.1647 74.7937 89.1666 73.5625 89.1666C72.3314 89.1666 71.3334 90.1647 71.3334 91.3958C71.3334 92.6269 72.3314 93.625 73.5625 93.625Z" fill="white"/>
<path d="M33.4375 80.25C34.6687 80.25 35.6667 79.2519 35.6667 78.0208C35.6667 76.7897 34.6687 75.7916 33.4375 75.7916C32.2064 75.7916 31.2084 76.7897 31.2084 78.0208C31.2084 79.2519 32.2064 80.25 33.4375 80.25Z" fill="white"/>
<path d="M15.6042 80.25C16.8353 80.25 17.8333 79.2519 17.8333 78.0208C17.8333 76.7897 16.8353 75.7916 15.6042 75.7916C14.373 75.7916 13.375 76.7897 13.375 78.0208C13.375 79.2519 14.373 80.25 15.6042 80.25Z" fill="white"/>
</svg>
